<svg width="37" height="31" viewBox="0 0 37 31" fill="none" xmlns="http://www.w3.org/2000/svg">
    <path
        d="M26.88 1.24496C26.05 3.08496 23.38 9.36495 22.28 11.955C24.56 12.355 26.8 12.965 28.97 13.785C30.97 12.635 34.79 10.485 35.62 10.505C37.04 10.535 37.24 10.9049 36.44 11.9649C35.64 13.0249 33.15 16.5749 33.15 16.5749C33.15 16.5749 34.37 20.695 34.8 21.945C35.23 23.195 34.92 23.485 33.56 23.085C32.77 22.855 29.82 19.665 28.29 17.975C25.97 18.105 23.65 18.015 21.34 17.705C21.56 20.505 22.08 27.2749 22.28 29.2649C22.45 31.0149 21.22 30.165 21.22 30.165C20.43 29.645 19.74 28.9849 19.18 28.2149C16.96 24.2249 13.66 17.885 12.88 16.395C12.14 16.285 11.34 16.1549 10.45 16.0149C0.59001 14.5049 1.28988e-05 12.155 0.110013 11.485C0.220013 10.815 1.54001 8.76496 11.4 10.275L13.83 10.645C15.05 9.45495 20.23 4.42495 23.62 1.29495C24.39 0.734947 25.26 0.314957 26.18 0.0549571C26.18 0.0549571 27.63 -0.385045 26.9 1.22496L26.88 1.24496Z"
        fill="white" />
</svg>