<svg width="100%" height="100%" viewBox="0 0 320 590" fill="none" xmlns="http://www.w3.org/2000/svg">
<path d="M320 0H0V590H320V0Z" fill="url(#paint0_linear_83_2921)"/>
<path opacity="0.5" d="M312.32 353C310.52 345.24 303.59 339.46 295.29 339.46C286.06 339.46 278.52 346.61 277.86 355.67C276.69 355.54 275.5 355.46 274.29 355.46C257.17 355.46 243.29 369.34 243.29 386.46C243.29 386.89 243.31 387.31 243.32 387.74C243.28 387.74 243.24 387.74 243.2 387.74C236.09 387.74 230.33 393.5 230.33 400.61C230.33 401.18 230.37 401.74 230.44 402.29C223.24 403.62 217.78 409.93 217.78 417.52H248.78C248.78 417.52 248.78 417.49 248.78 417.48H320V350.03C317.25 350.61 314.66 351.63 312.32 353.02V353Z" fill="white"/>
<path opacity="0.5" d="M41.78 190.49H72.78C72.78 182.9 67.32 176.6 60.12 175.26C60.19 174.71 60.23 174.15 60.23 173.58C60.23 166.47 54.47 160.71 47.36 160.71C47.32 160.71 47.28 160.71 47.24 160.71C47.26 160.29 47.27 159.86 47.27 159.43C47.27 142.31 33.39 128.43 16.27 128.43C15.06 128.43 13.88 128.51 12.7 128.64C12.17 121.21 6.97 115.06 0 113.11V190.45H41.78C41.78 190.45 41.78 190.48 41.78 190.49Z" fill="white"/>
<path opacity="0.6" d="M294.33 58C277.76 58 264.33 71.43 264.33 88C264.33 104.57 277.76 118 294.33 118C305.21 118 314.74 112.21 320 103.54V72.46C314.74 63.79 305.21 58 294.33 58Z" fill="white"/>
<defs>
<linearGradient id="paint0_linear_83_2921" x1="0" y1="295" x2="320" y2="295" gradientUnits="userSpaceOnUse">
<stop stop-color="#A1C4FD"/>
<stop offset="1" stop-color="#C2E9FB"/>
</linearGradient>
</defs>
</svg>
