<svg width="320" height="590" viewBox="0 0 320 590" fill="none" xmlns="http://www.w3.org/2000/svg">
<g clip-path="url(#clip0_153_66)">
<rect width="320" height="590" fill="white"/>
<g clip-path="url(#clip1_153_66)">
<path d="M320.5 0H0.5V590H320.5V0Z" fill="#243949"/>
<path d="M320.5 73.46C317.3 72.54 314.09 71.65 310.87 70.78" stroke="#7287A0" stroke-width="5" stroke-miterlimit="10" stroke-linecap="round"/>
<path d="M291.2 65.86C249.2 56.14 205.45 51 160.5 51C112.02 51 64.94 56.98 19.95 68.23" stroke="#7287A0" stroke-width="5" stroke-miterlimit="10" stroke-linecap="round"/>
<path d="M10.13 70.78C6.91 71.65 3.7 72.54 0.5 73.46" stroke="#7287A0" stroke-width="5" stroke-miterlimit="10" stroke-linecap="round"/>
<path d="M273.31 320.76C252.33 307.23 221.18 321.97 200.96 307.33C191.1 300.2 186.53 287.1 188.07 275.03C189.61 262.96 196.62 252.03 205.81 244.06C210.91 239.63 216.74 235.96 221.03 230.74C229.19 220.81 230.48 207.08 231.12 194.25C231.54 185.96 231.88 177.44 235.21 169.84C244.67 148.25 268.99 146.57 289.33 145.87C300.51 145.48 308.8 143.01 318.96 138.42C319.47 138.19 319.99 137.95 320.5 137.72V113.46C269.69 98.84 216.01 91 160.5 91C145.85 91 131.33 91.56 116.95 92.63C115.97 95.08 115.2 97.61 114.66 100.16C111.91 113.07 113.74 126.45 114.76 139.61C115.78 152.77 115.86 166.6 110.01 178.43C101.02 196.62 80.47 205.78 67.22 221.14C56.44 233.64 50.95 249.71 45.45 265.27C39.95 280.83 33.91 296.81 22.39 308.63C16.47 314.71 8.69 319.39 0.5 321.57V590.01H320.5V358.09C315.02 358.06 309.63 356.78 304.89 353.97C291.66 346.14 286.23 329.1 273.31 320.77V320.76Z" fill="#85D3E5"/>
<path d="M50.25 283.7C56.33 266.48 62.42 248.69 74.35 234.86C89.01 217.85 111.76 207.72 121.71 187.59C128.18 174.49 128.1 159.19 126.97 144.63C125.84 130.06 123.82 115.26 126.86 100.97C127.46 98.16 128.32 95.36 129.4 92.64C85.02 95.95 41.91 103.78 0.51001 115.69V346.01C9.57001 343.61 18.18 338.42 24.73 331.69C37.48 318.61 44.17 300.93 50.25 283.71V283.7Z" fill="#64A549"/>
<path d="M319.15 155.42C309 160.01 300.71 162.48 289.52 162.87C269.19 163.57 244.86 165.25 235.4 186.84C232.07 194.44 231.73 202.96 231.31 211.25C230.67 224.08 229.38 237.82 221.22 247.74C216.93 252.96 211.1 256.63 206 261.06C196.81 269.03 189.8 279.96 188.26 292.03C186.72 304.1 191.3 317.2 201.15 324.33C221.37 338.97 252.52 324.23 273.5 337.76C286.42 346.09 291.84 363.14 305.08 370.96C309.82 373.76 315.22 375.05 320.69 375.08V154.72C320.17 154.96 319.66 155.19 319.15 155.42Z" fill="#64A549"/>
<path d="M45.45 265.27C50.95 249.71 56.44 233.64 67.22 221.14C80.47 205.78 101.02 196.62 110.01 178.43C115.86 166.6 115.78 152.77 114.76 139.61C113.74 126.45 111.91 113.07 114.66 100.16C115.2 97.62 115.98 95.09 116.95 92.63C76.85 95.62 37.9 102.7 0.5 113.46V321.56C8.69 319.39 16.46 314.7 22.39 308.62C33.91 296.8 39.95 280.83 45.45 265.26V265.27Z" fill="#B0E59C"/>
<path d="M318.96 138.42C308.81 143.01 300.52 145.48 289.33 145.87C269 146.57 244.67 148.25 235.21 169.84C231.88 177.44 231.54 185.96 231.12 194.25C230.48 207.08 229.19 220.82 221.03 230.74C216.74 235.96 210.91 239.63 205.81 244.06C196.62 252.03 189.61 262.96 188.07 275.03C186.53 287.1 191.11 300.2 200.96 307.33C221.18 321.97 252.33 307.23 273.31 320.76C286.23 329.09 291.65 346.14 304.89 353.96C309.63 356.76 315.03 358.05 320.5 358.08V137.72C319.98 137.96 319.47 138.19 318.96 138.42V138.42Z" fill="#B0E59C"/>
<path d="M134.14 380.75C124.38 383.15 114.47 387.05 108.05 394.79C104.22 399.41 101.91 405.06 99.0101 410.31C93.7501 419.87 86.4001 428.27 77.6301 434.76C69.6401 440.68 60.3501 445.15 53.9901 452.79C47.3201 460.8 44.6201 472.02 47.1101 482.14C49.6001 492.26 57.2901 501.01 67.0901 504.57C77.4201 508.33 88.8101 506.41 99.7301 505.15C114.83 503.4 130.34 503.03 145.02 506.99C161.98 511.57 176.91 521.65 193.35 527.85C201.24 530.83 209.75 532.92 218.08 531.6C230.57 529.61 241.3 519.31 243.8 506.92C246.67 492.67 239.43 478.42 231.34 466.34C223.24 454.26 213.78 442.31 211.38 427.97C209.63 417.53 211.79 406.5 208.48 396.45C198.99 367.65 156.22 375.3 134.14 380.74V380.75Z" fill="#64A549"/>
<path d="M119.14 366.75C109.38 369.15 99.4701 373.05 93.0501 380.79C89.2201 385.41 86.9101 391.06 84.0101 396.31C78.7501 405.87 71.4001 414.27 62.6301 420.76C54.6401 426.68 45.3501 431.15 38.9901 438.79C32.3201 446.8 29.6201 458.02 32.1101 468.14C34.6001 478.26 42.2901 487.01 52.0901 490.57C62.4201 494.33 73.8101 492.41 84.7301 491.15C99.8301 489.4 115.34 489.03 130.02 492.99C146.98 497.57 161.91 507.65 178.35 513.85C186.24 516.83 194.75 518.92 203.08 517.6C215.57 515.61 226.3 505.31 228.8 492.92C231.67 478.67 224.43 464.42 216.34 452.34C208.24 440.26 198.78 428.31 196.38 413.97C194.63 403.53 196.79 392.5 193.48 382.45C183.99 353.65 141.22 361.3 119.14 366.74V366.75Z" fill="#B0E59C"/>
<path d="M127.18 80.72C128.15 76.65 131.12 62.83 132.35 57.12C127.55 57.2 122.75 56.84 118.02 56.03C114.41 59.16 107.46 65.03 105.77 65.31C102.86 65.8 102.32 65.14 103.54 62.66C104.76 60.18 108.43 51.98 108.43 51.98C108.43 51.98 104.32 44.08 102.97 41.7C101.62 39.32 102.13 38.62 105.05 38.89C106.76 39.05 114.01 44.37 117.78 47.22C122.45 46.05 127.21 45.32 132.02 45.04C130.48 39.42 126.76 25.86 125.57 21.88C124.54 18.39 127.38 19.64 127.38 19.64C129.19 20.4 130.85 21.47 132.29 22.81C138.37 30.06 147.58 41.67 149.75 44.39C151.3 44.33 152.98 44.27 154.85 44.2C175.51 43.42 177.62 47.95 177.66 49.37C177.7 50.79 175.83 55.46 155.17 56.26L150.07 56.46C148.06 59.35 139.5 71.63 133.81 79.32C132.45 80.76 130.86 81.96 129.09 82.85C129.09 82.85 126.32 84.32 127.17 80.75V80.73L127.18 80.72Z" fill="#7287A0"/>
<path d="M20.8101 97C13.7801 97 8.08008 102.7 8.08008 109.73C8.08008 117.47 16.4501 128.2 19.6201 131.99C20.2401 132.73 21.3801 132.73 22.0101 131.99C25.1801 128.21 33.5501 117.48 33.5501 109.73C33.5501 102.7 27.8501 97 20.8201 97H20.8101ZM20.8101 114.28C18.3001 114.28 16.2601 112.24 16.2601 109.73C16.2601 107.22 18.3001 105.18 20.8101 105.18C23.3201 105.18 25.3601 107.22 25.3601 109.73C25.3601 112.24 23.3201 114.28 20.8101 114.28Z" fill="#5A75E5"/>
<path d="M73.49 154.59C66.46 154.59 60.76 160.29 60.76 167.32C60.76 175.06 69.13 185.79 72.3 189.58C72.92 190.32 74.06 190.32 74.69 189.58C77.86 185.8 86.23 175.07 86.23 167.32C86.23 160.29 80.53 154.59 73.5 154.59H73.49ZM73.49 171.87C70.98 171.87 68.94 169.83 68.94 167.32C68.94 164.81 70.98 162.77 73.49 162.77C76 162.77 78.04 164.81 78.04 167.32C78.04 169.83 76 171.87 73.49 171.87Z" fill="#5A75E5"/>
<path d="M299.18 154.15C292.15 154.15 286.45 159.85 286.45 166.88C286.45 174.62 294.82 185.35 297.99 189.14C298.61 189.88 299.75 189.88 300.38 189.14C303.55 185.36 311.92 174.63 311.92 166.88C311.92 159.85 306.22 154.15 299.19 154.15H299.18ZM299.18 171.43C296.67 171.43 294.63 169.39 294.63 166.88C294.63 164.37 296.67 162.33 299.18 162.33C301.69 162.33 303.73 164.37 303.73 166.88C303.73 169.39 301.69 171.43 299.18 171.43Z" fill="#5A75E5"/>
<path d="M280.18 259.15C273.15 259.15 267.45 264.85 267.45 271.88C267.45 279.62 275.82 290.35 278.99 294.14C279.61 294.88 280.75 294.88 281.38 294.14C284.55 290.36 292.92 279.63 292.92 271.88C292.92 264.85 287.22 259.15 280.19 259.15H280.18ZM280.18 276.43C277.67 276.43 275.63 274.39 275.63 271.88C275.63 269.37 277.67 267.33 280.18 267.33C282.69 267.33 284.73 269.37 284.73 271.88C284.73 274.39 282.69 276.43 280.18 276.43Z" fill="#5A75E5"/>
<path d="M69.18 427.15C62.15 427.15 56.45 432.85 56.45 439.88C56.45 447.62 64.8199 458.35 67.9899 462.14C68.6099 462.88 69.7499 462.88 70.3799 462.14C73.5499 458.36 81.9199 447.63 81.9199 439.88C81.9199 432.85 76.22 427.15 69.19 427.15H69.18ZM69.18 444.43C66.67 444.43 64.6299 442.39 64.6299 439.88C64.6299 437.37 66.67 435.33 69.18 435.33C71.69 435.33 73.73 437.37 73.73 439.88C73.73 442.39 71.69 444.43 69.18 444.43Z" fill="#5A75E5"/>
<path opacity="0.2" d="M77.6001 160V249.5V253V490.78L85.5201 482.85L96.0101 493.34L106.01 483.34L115.99 493.32L126.49 482.82L136.94 493.27L146.94 483.27L157.01 493.34L167.64 482.7L178.32 493.39L188.69 483.02L198.9 493.23L209.4 482.73L219.96 493.29L230.46 482.79L241.13 493.46L251.63 482.96L259.6 490.93V253V249.5V160H77.6001Z" fill="black"/>
<path d="M69.6001 152V241.5V245V482.78L77.5201 474.85L88.0101 485.34L98.0101 475.34L107.99 485.32L118.49 474.82L128.94 485.27L138.94 475.27L149.01 485.34L159.64 474.7L170.32 485.39L180.69 475.02L190.9 485.23L201.4 474.73L211.96 485.29L222.46 474.79L233.13 485.46L243.63 474.96L251.6 482.93V245V241.5V152H69.6001Z" fill="white"/>
</g>
</g>
<defs>
<clipPath id="clip0_153_66">
<rect width="320" height="590" fill="white"/>
</clipPath>
<clipPath id="clip1_153_66">
<rect width="325" height="590" fill="white" transform="translate(-2)"/>
</clipPath>
</defs>
</svg>
