<svg width="297" height="83" viewBox="0 0 297 83" fill="none" xmlns="http://www.w3.org/2000/svg">
<path opacity="0.2" d="M297 73.23V5H239.77L239.79 5.01999L229.89 14.92L219.99 5.01999L220.01 5H5V83H220.01L229.89 73.12L239.77 83H287.01L296.89 73.12L297 73.23Z" fill="black"/>
<path d="M293 69.23V1H235.77L235.79 1.01999L225.89 10.92L215.99 1.01999L216.01 1H1V79H216.01L225.89 69.12L235.77 79H283.01L292.89 69.12L293 69.23Z" fill="white" stroke="black" stroke-linejoin="round"/>
<path d="M40.51 40.6C40.16 40.6 39.98 40.43 39.98 40.1V34.4C39.98 34.07 40.15 33.9 40.51 33.9H44.89V32.45H40.47C40.12 32.45 39.94 32.28 39.94 31.95V30.15C39.94 29.82 40.11 29.65 40.47 29.65H48.52C48.87 29.65 49.04 29.82 49.04 30.15V35.77C49.04 36.1 48.87 36.27 48.52 36.27H44.1V37.8H45.37C46.55 37.8 47.52 37.77 48.28 37.7C49.04 37.63 49.73 37.5 50.37 37.3V30C50.37 29.65 50.54 29.47 50.87 29.47H53.75C54.08 29.47 54.25 29.64 54.25 30V32.92H55.6V29.92C55.6 29.57 55.77 29.39 56.1 29.39H59C59.33 29.39 59.5 29.57 59.5 29.92V40.8C59.5 41.13 59.33 41.3 59 41.3H56.1C55.77 41.3 55.6 41.13 55.6 40.8V36.68H54.25V40.3C54.25 40.63 54.08 40.8 53.75 40.8H50.87C50.54 40.8 50.37 40.63 50.37 40.3V39.88C49.8 40.11 49.08 40.29 48.2 40.42C47.32 40.54 46.21 40.61 44.87 40.61H40.52L40.51 40.6ZM47.66 50.3C45.38 50.3 43.65 49.95 42.47 49.26C41.3 48.57 40.71 47.51 40.71 46.1C40.71 44.69 41.3 43.63 42.47 42.94C43.65 42.25 45.37 41.9 47.66 41.9H52.76C57.31 41.9 59.59 43.3 59.59 46.1C59.59 48.9 57.31 50.3 52.76 50.3H47.66V50.3ZM52.76 47.22C53.46 47.22 53.94 47.13 54.2 46.95C54.46 46.77 54.59 46.48 54.59 46.1C54.59 45.72 54.46 45.43 54.2 45.25C53.94 45.07 53.46 44.97 52.76 44.97H47.66C46.96 44.97 46.46 45.06 46.16 45.23C45.86 45.4 45.71 45.69 45.71 46.09C45.71 46.49 45.86 46.8 46.16 46.97C46.46 47.14 46.96 47.22 47.66 47.22H52.76Z" fill="black"/>
<path d="M63.04 37.88C63.04 37.55 63.21 37.38 63.56 37.38H76.36L76.44 33.85H63.79C63.46 33.85 63.29 33.68 63.29 33.35V30.43C63.29 30.1 63.46 29.93 63.79 29.93H80.89C81.24 29.93 81.42 30.1 81.42 30.43L81.22 37.76C81.19 39.28 81.02 40.71 80.73 42.05C80.44 43.39 80.12 44.54 79.77 45.49H81.77C82.12 45.49 82.3 45.66 82.3 45.99V48.77C82.3 49.14 82.12 49.32 81.77 49.32H63.1C62.75 49.32 62.57 49.14 62.57 48.77V45.99C62.57 45.66 62.74 45.49 63.1 45.49H75.1C75.33 44.86 75.53 44.16 75.7 43.41C75.87 42.66 76.01 41.86 76.12 41.01H63.57C63.22 41.01 63.05 40.84 63.05 40.51V37.89L63.04 37.88Z" fill="black"/>
<path d="M103.81 36.53C103.81 37.43 103.44 38.12 102.7 38.59C101.96 39.07 101.01 39.38 99.86 39.53V40.68C100.94 40.68 101.97 40.65 102.95 40.58C103.93 40.51 104.82 40.35 105.64 40.08V29.93C105.64 29.58 105.81 29.4 106.17 29.4H109.75C110.1 29.4 110.27 29.58 110.27 29.93V34.76H111.6C111.93 34.76 112.1 34.93 112.1 35.28V38.23C112.1 38.56 111.93 38.73 111.6 38.73H110.27V42.93C110.27 43.28 110.1 43.46 109.75 43.46H106.17C105.82 43.46 105.64 43.28 105.64 42.93V42.43C104.81 42.78 103.8 43.04 102.62 43.21C101.44 43.38 100.11 43.46 98.64 43.46H91.42C91.07 43.46 90.89 43.28 90.89 42.91V41.19C90.89 40.86 91.06 40.69 91.42 40.69H95.77V39.57C95.19 39.5 94.65 39.39 94.16 39.23C93.67 39.07 93.25 38.87 92.9 38.63C92.55 38.39 92.28 38.09 92.07 37.74C91.87 37.39 91.77 36.99 91.77 36.54V36.27C91.77 35.7 91.93 35.22 92.25 34.82C92.57 34.42 93 34.1 93.54 33.85C94.08 33.6 94.72 33.42 95.45 33.31C96.18 33.2 96.97 33.15 97.8 33.15C98.63 33.15 99.42 33.2 100.15 33.31C100.88 33.42 101.52 33.6 102.06 33.85C102.6 34.1 103.03 34.42 103.35 34.82C103.67 35.22 103.82 35.7 103.82 36.27V36.54L103.81 36.53ZM91.14 30.36C91.14 30.03 91.31 29.86 91.67 29.86H95.67V28.94C95.67 28.59 95.84 28.41 96.19 28.41H99.64C99.99 28.41 100.17 28.59 100.17 28.94V29.86H103.77C104.12 29.86 104.3 30.03 104.3 30.36V31.91C104.3 32.26 104.13 32.44 103.77 32.44H91.67C91.32 32.44 91.14 32.27 91.14 31.91V30.36ZM93.12 47.21C92.77 47.21 92.59 47.06 92.59 46.76V44.93C92.59 44.6 92.76 44.43 93.12 44.43H109.77C110.1 44.43 110.27 44.6 110.27 44.93V49.31C110.27 49.64 110.1 49.81 109.77 49.81H105.92C105.59 49.81 105.42 49.64 105.42 49.31V47.21H93.12V47.21ZM99.52 36.38C99.52 35.95 99.37 35.64 99.06 35.46C98.75 35.28 98.33 35.18 97.8 35.18C97.27 35.18 96.82 35.28 96.51 35.47C96.2 35.66 96.05 35.97 96.05 36.38C96.05 36.79 96.21 37.1 96.52 37.3C96.83 37.5 97.26 37.6 97.8 37.6C98.34 37.6 98.77 37.5 99.07 37.31C99.37 37.12 99.52 36.81 99.52 36.37V36.38Z" fill="black"/>
<path d="M118.19 33.68C118.54 33.68 118.71 33.85 118.71 34.21V35.48C118.71 37.11 119.31 37.93 120.51 37.93C121.71 37.93 122.36 37.11 122.36 35.48C122.36 34.58 122.11 33.93 121.61 33.52C121.11 33.11 120.31 32.91 119.21 32.91H114.06C113.71 32.91 113.53 32.74 113.53 32.41V30.21C113.53 29.86 113.7 29.68 114.06 29.68H119.08C121.58 29.68 123.53 30.14 124.92 31.06C126.31 31.98 127.01 33.44 127.01 35.46C127.01 36.44 126.85 37.3 126.54 38.02C126.22 38.74 125.78 39.34 125.2 39.82C124.63 40.29 123.94 40.65 123.15 40.87C122.36 41.09 121.48 41.21 120.51 41.21C119.54 41.21 118.69 41.1 117.9 40.87C117.11 40.64 116.43 40.29 115.86 39.82C115.29 39.34 114.85 38.74 114.53 38.02C114.21 37.29 114.06 36.44 114.06 35.46V34.21C114.06 33.86 114.23 33.68 114.56 33.68H118.18H118.19ZM133.09 45.56C133.41 45.56 133.57 45.73 133.57 46.06V49.06C133.57 49.39 133.41 49.56 133.09 49.56H115.44C115.11 49.56 114.94 49.39 114.94 49.06V43.51C114.94 43.18 115.11 43.01 115.44 43.01H119.21C119.56 43.01 119.74 43.18 119.74 43.51V45.56H133.09ZM129.24 43.03C128.89 43.03 128.71 42.86 128.71 42.53V29.93C128.71 29.58 128.88 29.4 129.24 29.4H132.82C133.17 29.4 133.34 29.58 133.34 29.93V42.53C133.34 42.86 133.17 43.03 132.82 43.03H129.24Z" fill="black"/>
<path d="M136.29 31.71C136.29 31.38 136.46 31.21 136.82 31.21H140.57V29.06C140.57 28.71 140.74 28.53 141.09 28.53H144.54C144.89 28.53 145.07 28.71 145.07 29.06V31.21H148.82C149.17 31.21 149.34 31.38 149.34 31.71V34.41C149.34 34.74 149.17 34.91 148.82 34.91H136.82C136.47 34.91 136.29 34.74 136.29 34.41V31.71ZM148.84 43.59C148.84 44.69 148.69 45.63 148.4 46.4C148.11 47.17 147.7 47.8 147.16 48.29C146.63 48.77 145.99 49.13 145.25 49.35C144.51 49.58 143.69 49.69 142.79 49.69C141.89 49.69 141.07 49.58 140.34 49.35C139.61 49.13 138.98 48.77 138.45 48.29C137.92 47.81 137.52 47.18 137.22 46.4C136.93 45.62 136.78 44.69 136.78 43.59V41.81C136.78 40.71 136.93 39.77 137.22 39C137.51 38.23 137.92 37.6 138.46 37.11C139 36.62 139.63 36.27 140.37 36.05C141.11 35.83 141.93 35.71 142.83 35.71C143.73 35.71 144.55 35.82 145.28 36.05C146.01 36.28 146.64 36.63 147.17 37.11C147.7 37.59 148.1 38.22 148.39 39C148.68 39.78 148.83 40.71 148.83 41.81V43.59H148.84ZM144.44 41.81C144.44 41.06 144.32 40.47 144.09 40.05C143.86 39.63 143.44 39.41 142.84 39.41C142.24 39.41 141.79 39.62 141.55 40.05C141.31 40.47 141.19 41.06 141.19 41.81V43.59C141.19 44.34 141.31 44.93 141.54 45.35C141.77 45.78 142.19 45.99 142.79 45.99C143.39 45.99 143.84 45.78 144.08 45.35C144.32 44.93 144.44 44.34 144.44 43.59V41.81ZM151.34 49.81C150.99 49.81 150.82 49.64 150.82 49.31V29.93C150.82 29.58 150.99 29.4 151.34 29.4H154.92C155.27 29.4 155.45 29.58 155.45 29.93V36.83H156.75C157.08 36.83 157.25 37 157.25 37.35V40.68C157.25 41.01 157.08 41.18 156.75 41.18H155.45V49.3C155.45 49.63 155.28 49.8 154.92 49.8H151.34V49.81Z" fill="black"/>
<path d="M159.86 49.06C159.68 49.09 159.55 49.06 159.47 48.96C159.4 48.86 159.36 48.73 159.36 48.56V45.31C159.36 45.14 159.41 45.03 159.5 44.97C159.59 44.91 159.71 44.86 159.86 44.81C162.09 44.09 163.8 42.84 164.97 41.03C166.15 39.23 166.73 36.8 166.73 33.73H159.61C159.28 33.73 159.11 33.56 159.11 33.23V30.4C159.11 30.07 159.28 29.9 159.61 29.9H171.23C171.58 29.9 171.76 30.08 171.76 30.43V33.18C171.76 35.38 171.49 37.37 170.95 39.15C170.41 40.93 169.63 42.5 168.61 43.85C167.59 45.2 166.35 46.31 164.87 47.19C163.39 48.07 161.72 48.69 159.86 49.05V49.06ZM174.39 49.81C174.04 49.81 173.86 49.64 173.86 49.31V29.93C173.86 29.58 174.03 29.4 174.39 29.4H177.97C178.32 29.4 178.49 29.58 178.49 29.93V49.31C178.49 49.64 178.32 49.81 177.97 49.81H174.39Z" fill="black"/>
<path d="M226 12V67.27" stroke="black" stroke-linecap="round" stroke-linejoin="round"/>
<path d="M237.52 40.45L205.98 71.98H1" stroke="#EDC964" stroke-width="2" stroke-miterlimit="10" stroke-linecap="round"/>
<path d="M247.16 60.11C247.16 59.57 246.99 59.18 246.64 58.95C246.29 58.72 245.77 58.6 245.07 58.6H241.49C241.28 58.6 241.17 58.5 241.17 58.3V56.21C241.17 56.01 241.28 55.91 241.49 55.91H245.07C246.66 55.91 247.9 56.25 248.78 56.94C249.66 57.63 250.1 58.6 250.1 59.84V60.14C250.1 60.81 249.98 61.41 249.73 61.94C249.48 62.47 249.12 62.92 248.64 63.29L250.66 67.34C250.74 67.57 250.66 67.68 250.42 67.68H247.63C247.44 67.68 247.32 67.6 247.28 67.44L245.95 64.27C245.66 64.3 245.37 64.31 245.07 64.31H244.82C244.73 64.31 244.65 64.31 244.56 64.29V67.37C244.56 67.57 244.45 67.67 244.24 67.67H241.78C241.58 67.67 241.48 67.57 241.48 67.37V59.25C241.48 59.05 241.58 58.95 241.78 58.95H244.24C244.45 58.95 244.56 59.05 244.56 59.25V61.61C244.65 61.61 244.74 61.62 244.82 61.62H245.07C245.77 61.62 246.29 61.5 246.64 61.26C246.99 61.02 247.16 60.63 247.16 60.09V60.11Z" fill="#EDC964"/>
<path d="M254.09 67.44C254.03 67.6 253.9 67.68 253.71 67.68H251.13C251.01 67.68 250.93 67.65 250.88 67.58C250.84 67.51 250.84 67.43 250.88 67.32L254.42 56.15C254.48 55.99 254.6 55.91 254.78 55.91H256.9C257.13 55.91 257.21 56.03 257.15 56.27L254.07 67.45L254.09 67.44ZM258.44 67.68C258.25 67.68 258.14 67.6 258.1 67.44L257.72 65.98H255.32C255.2 65.98 255.11 65.95 255.07 65.88C255.02 65.81 255.02 65.73 255.06 65.62L255.61 63.59C255.67 63.4 255.78 63.31 255.96 63.31H257.04L256.44 60.98C256.4 60.86 256.4 60.72 256.45 60.56L257.53 56.65C257.57 56.51 257.64 56.44 257.73 56.44C257.82 56.44 257.89 56.51 257.94 56.65L261.36 67.33C261.46 67.56 261.39 67.67 261.14 67.67H258.45L258.44 67.68Z" fill="#EDC964"/>
<path d="M262.49 56.27C262.44 56.16 262.44 56.07 262.49 56.01C262.54 55.95 262.62 55.91 262.74 55.91H265.44C265.62 55.91 265.74 55.99 265.82 56.15L268.78 62.21V56.2C268.78 56.01 268.88 55.92 269.08 55.92H271.46C271.67 55.92 271.78 56.01 271.78 56.2V67.48C271.78 67.48 271.77 67.55 271.75 67.57C271.71 67.66 271.63 67.7 271.5 67.7H268.95C268.77 67.7 268.64 67.62 268.57 67.46L262.51 56.27H262.49ZM262.46 57.97C262.46 57.86 262.52 57.79 262.63 57.77C262.74 57.75 262.82 57.8 262.87 57.9L265.33 62.44C265.38 62.54 265.41 62.63 265.44 62.72C265.46 62.81 265.47 62.9 265.47 63V67.4C265.47 67.59 265.37 67.68 265.17 67.68H262.79C262.58 67.68 262.47 67.59 262.47 67.4V57.96L262.46 57.97Z" fill="#EDC964"/>
<path d="M276.33 67.37C276.33 67.58 276.22 67.68 276.01 67.68H273.55C273.35 67.68 273.25 67.58 273.25 67.37V56.2C273.25 56.01 273.35 55.92 273.55 55.92H276.01C276.22 55.92 276.33 56.01 276.33 56.2V60.14L278.77 56.15C278.82 56.07 278.87 56.01 278.92 55.97C278.97 55.93 279.04 55.91 279.12 55.91H282.13C282.24 55.91 282.32 55.94 282.36 56.01C282.4 56.08 282.39 56.16 282.32 56.27L276.32 65.15V67.37H276.33ZM279.63 67.68C279.44 67.68 279.33 67.6 279.29 67.44L277.67 64.36C277.64 64.3 277.62 64.23 277.62 64.16C277.62 64.09 277.64 64.01 277.69 63.94L279.18 61.75C279.32 61.53 279.45 61.53 279.59 61.75L282.86 67.33C282.96 67.56 282.88 67.67 282.64 67.67H279.65L279.63 67.68Z" fill="#EDC964"/>
<path d="M261.89 16.51C253.13 16.51 246.03 23.61 246.03 32.37C246.03 41.13 253.13 48.23 261.89 48.23C270.65 48.23 277.75 41.13 277.75 32.37C277.75 23.61 270.65 16.51 261.89 16.51ZM263.44 40.85V43.67H260.93V40.98C258.93 40.97 257.01 40.16 255.6 38.73L257.76 36.54C258.88 37.57 260.37 38.1 261.88 38C263.84 38 264.9 37.25 264.9 35.86C264.93 35.32 264.74 34.79 264.37 34.4C263.95 34.04 263.42 33.82 262.86 33.79L260.8 33.5C259.57 33.39 258.41 32.89 257.49 32.07C256.64 31.15 256.2 29.92 256.27 28.67C256.27 25.96 258.01 23.97 260.93 23.52V21.06H263.44V23.49C265.06 23.61 266.58 24.3 267.73 25.44L265.62 27.55C264.66 26.69 263.4 26.26 262.12 26.36C260.35 26.36 259.48 27.35 259.48 28.55C259.47 29.01 259.65 29.46 259.98 29.79C260.43 30.17 260.98 30.41 261.56 30.47L263.57 30.76C264.77 30.84 265.92 31.31 266.83 32.09C267.76 33.08 268.24 34.4 268.15 35.76C268.15 38.59 266.18 40.36 263.43 40.85H263.44Z" fill="#EDC964"/>
</svg>
