<svg width="297" height="84" viewBox="0 0 297 84" fill="none" xmlns="http://www.w3.org/2000/svg">
<path opacity="0.2" d="M297 73.57V5.34H239.77L239.79 5.35999L229.89 15.26L219.99 5.35999L220.01 5.34H5V83.34H220.01L229.89 73.46L239.77 83.34H287.01L296.89 73.46L297 73.57Z" fill="black"/>
<path d="M293 69.57V1.34H235.77L235.79 1.35999L225.89 11.26L215.99 1.35999L216.01 1.34H1V79.34H216.01L225.89 69.46L235.77 79.34H283.01L292.89 69.46L293 69.57Z" fill="white" stroke="black" stroke-linejoin="round"/>
<path d="M39.74 49.14C39.57 49.17 39.45 49.14 39.36 49.04C39.28 48.94 39.24 48.81 39.24 48.64V45.39C39.24 45.22 39.29 45.12 39.39 45.08C39.49 45.04 39.61 44.98 39.74 44.89C40.42 44.52 41.03 44.04 41.55 43.44C42.08 42.84 42.52 42.1 42.88 41.23C43.24 40.36 43.51 39.33 43.69 38.14C43.87 36.95 43.97 35.6 43.97 34.06H39.49C39.16 34.06 38.99 33.89 38.99 33.56V30.73C38.99 30.4 39.16 30.23 39.49 30.23H47.64C47.99 30.23 48.16 30.4 48.16 30.76V33.51C48.16 35.14 48.06 36.64 47.86 38.01H49.48V30.41C49.48 30.06 49.65 29.89 49.98 29.89H52.86C53.19 29.89 53.36 30.06 53.36 30.41V49.39C53.36 49.72 53.19 49.89 52.86 49.89H49.98C49.65 49.89 49.48 49.72 49.48 49.39V42.34H46.78C45.4 45.99 43.05 48.26 39.73 49.14H39.74ZM54.59 30.26C54.59 29.91 54.76 29.73 55.09 29.73H57.99C58.32 29.73 58.49 29.9 58.49 30.26V49.64C58.49 49.97 58.32 50.14 57.99 50.14H55.09C54.76 50.14 54.59 49.97 54.59 49.64V30.26Z" fill="black"/>
<path d="M65.79 33.89C66.14 33.89 66.31 34.06 66.31 34.41V35.06C66.31 36.28 66.91 36.89 68.11 36.89C69.31 36.89 69.96 36.28 69.96 35.06C69.96 34.41 69.71 33.92 69.21 33.59C68.71 33.26 67.91 33.09 66.81 33.09H61.66C61.31 33.09 61.13 32.93 61.13 32.61V30.41C61.13 30.06 61.3 29.89 61.66 29.89H66.68C69.2 29.89 71.15 30.32 72.53 31.18C73.91 32.04 74.6 33.33 74.6 35.04C74.6 35.87 74.44 36.61 74.13 37.24C73.81 37.87 73.37 38.41 72.79 38.84C72.22 39.27 71.53 39.6 70.74 39.83C69.95 40.05 69.07 40.17 68.1 40.17C67.13 40.17 66.28 40.06 65.49 39.83C64.7 39.6 64.02 39.28 63.45 38.84C62.88 38.41 62.44 37.87 62.12 37.24C61.8 36.61 61.65 35.87 61.65 35.04V34.42C61.65 34.07 61.82 33.9 62.15 33.9H65.77L65.79 33.89ZM62.54 42.24C62.54 41.89 62.71 41.72 63.04 41.72H80.44C80.79 41.72 80.97 41.89 80.97 42.22V49.52C80.97 49.85 80.8 50.02 80.44 50.02H63.04C62.71 50.02 62.54 49.85 62.54 49.52V42.24ZM67.26 44.77V46.99H76.21V44.77H67.26ZM76.84 40.44C76.49 40.44 76.31 40.27 76.31 39.94V30.27C76.31 29.92 76.48 29.74 76.84 29.74H80.42C80.77 29.74 80.94 29.91 80.94 30.27V39.94C80.94 40.27 80.77 40.44 80.42 40.44H76.84Z" fill="black"/>
<path d="M90.14 30.74C90.14 30.41 90.31 30.24 90.67 30.24H102.17C102.52 30.24 102.69 30.41 102.69 30.74V33.44C102.69 33.77 102.52 33.94 102.17 33.94H90.67C90.32 33.94 90.14 33.77 90.14 33.44V30.74ZM105.19 50.14C104.84 50.14 104.67 49.97 104.67 49.64V48.14C103.84 48.66 102.72 49.06 101.33 49.34C99.94 49.62 98.38 49.76 96.67 49.76H90.92C90.75 49.76 90.62 49.72 90.52 49.64C90.42 49.56 90.38 49.42 90.4 49.24L91.13 35.16C91.16 34.84 91.34 34.69 91.65 34.69H95.18C95.55 34.69 95.72 34.86 95.7 35.22L95.13 46.07H97.18C98.58 46.07 99.94 45.96 101.27 45.74C102.6 45.52 103.73 45.17 104.68 44.69V30.27C104.68 29.92 104.85 29.74 105.2 29.74H108.78C109.13 29.74 109.31 29.91 109.31 30.27V37.17H110.61C110.94 37.17 111.11 37.35 111.11 37.7V41.03C111.11 41.36 110.94 41.53 110.61 41.53H109.31V49.65C109.31 49.98 109.14 50.15 108.78 50.15H105.2L105.19 50.14Z" fill="black"/>
<path d="M117.56 49.64C117.48 49.91 117.27 50.04 116.94 50.04H113.24C112.87 50.04 112.74 49.84 112.84 49.44L117.46 30.52C117.53 30.25 117.73 30.12 118.06 30.12H121.94C122.29 30.12 122.41 30.32 122.32 30.72L117.57 49.64H117.56ZM122.08 49.97C121.76 49.97 121.57 49.84 121.5 49.57L119.78 44.4C119.76 44.28 119.76 44.18 119.77 44.09C119.78 44 119.8 43.89 119.83 43.75L121.45 37.28C121.5 37.06 121.61 36.95 121.78 36.93C121.95 36.91 122.06 37.02 122.13 37.26L126.16 49.41C126.29 49.79 126.16 49.99 125.78 49.99H122.08V49.97ZM128.23 50.14C127.88 50.14 127.7 49.97 127.7 49.64V30.26C127.7 29.91 127.87 29.73 128.23 29.73H131.81C132.16 29.73 132.33 29.9 132.33 30.26V49.64C132.33 49.97 132.16 50.14 131.81 50.14H128.23Z" fill="black"/>
<path d="M146.39 49.64C146.31 49.91 146.1 50.04 145.77 50.04H142.07C141.7 50.04 141.57 49.84 141.67 49.44L146.29 30.52C146.36 30.25 146.56 30.12 146.89 30.12H150.77C151.12 30.12 151.24 30.32 151.15 30.72L146.4 49.64H146.39ZM150.91 49.97C150.59 49.97 150.4 49.84 150.33 49.57L148.61 44.4C148.59 44.28 148.59 44.18 148.6 44.09C148.61 44 148.63 43.89 148.66 43.75L150.28 37.28C150.33 37.06 150.44 36.95 150.61 36.93C150.78 36.91 150.89 37.02 150.96 37.26L154.99 49.41C155.12 49.79 154.99 49.99 154.61 49.99H150.91V49.97ZM157.06 50.14C156.71 50.14 156.53 49.97 156.53 49.64V30.26C156.53 29.91 156.7 29.73 157.06 29.73H160.64C160.99 29.73 161.16 29.9 161.16 30.26V49.64C161.16 49.97 160.99 50.14 160.64 50.14H157.06Z" fill="black"/>
<path d="M164.51 30.49C164.51 30.16 164.68 29.99 165.03 29.99H176.38C176.73 29.99 176.9 30.16 176.9 30.49V32.91C176.9 33.24 176.73 33.41 176.38 33.41H173.35L169.3 40.51C169.23 40.63 169.15 40.72 169.05 40.8C168.95 40.88 168.83 40.91 168.67 40.91H164.75C164.55 40.91 164.41 40.86 164.34 40.75C164.27 40.64 164.27 40.5 164.35 40.31L168.18 33.41H165.03C164.68 33.41 164.51 33.24 164.51 32.91V30.49ZM165.59 45.91C165.26 45.91 165.09 45.74 165.09 45.41V42.79C165.09 42.46 165.26 42.29 165.59 42.29H182.76C183.09 42.29 183.26 42.46 183.26 42.79V49.64C183.26 49.97 183.09 50.14 182.76 50.14H178.91C178.58 50.14 178.41 49.97 178.41 49.64V45.91H165.59ZM172.86 40.76C172.58 40.76 172.39 40.63 172.28 40.36L171.53 38.74C171.43 38.52 171.44 38.31 171.56 38.09L173.56 34.59C173.79 34.19 174.02 34.19 174.23 34.59L177.15 40.19C177.32 40.57 177.19 40.77 176.77 40.77H172.85L172.86 40.76ZM179.16 41.01C178.81 41.01 178.64 40.84 178.64 40.51V30.26C178.64 29.91 178.81 29.73 179.16 29.73H182.74C183.09 29.73 183.27 29.9 183.27 30.26V33.38H184.44C184.77 33.38 184.94 33.55 184.94 33.9V36.83C184.94 37.16 184.77 37.33 184.44 37.33H183.27V40.5C183.27 40.83 183.1 41 182.74 41H179.16V41.01Z" fill="black"/>
<path d="M226 12.34V67.61" stroke="black" stroke-linecap="round" stroke-linejoin="round"/>
<path d="M237.52 40.78L205.98 72.32H1" stroke="#63C9EF" stroke-width="2" stroke-miterlimit="10" stroke-linecap="round"/>
<path d="M247.16 60.44C247.16 59.9 246.99 59.51 246.64 59.28C246.3 59.05 245.77 58.93 245.07 58.93H241.49C241.28 58.93 241.17 58.83 241.17 58.63V56.55C241.17 56.35 241.28 56.25 241.49 56.25H245.07C246.66 56.25 247.9 56.59 248.78 57.29C249.66 57.98 250.1 58.94 250.1 60.18V60.48C250.1 61.15 249.98 61.75 249.73 62.28C249.48 62.81 249.12 63.26 248.64 63.63L250.66 67.68C250.74 67.91 250.66 68.02 250.42 68.02H247.63C247.44 68.02 247.32 67.94 247.28 67.78L245.95 64.61C245.66 64.64 245.37 64.65 245.07 64.65H244.82C244.73 64.65 244.65 64.65 244.56 64.63V67.71C244.56 67.91 244.45 68.01 244.24 68.01H241.78C241.58 68.01 241.48 67.91 241.48 67.71V59.59C241.48 59.39 241.58 59.29 241.78 59.29H244.24C244.45 59.29 244.56 59.39 244.56 59.59V61.95C244.65 61.95 244.74 61.96 244.82 61.96H245.07C245.77 61.96 246.29 61.84 246.64 61.6C246.98 61.36 247.16 60.97 247.16 60.43V60.44Z" fill="#63C9EF"/>
<path d="M251.6 58.85C251.39 58.85 251.28 58.75 251.28 58.55V56.54C251.28 56.34 251.39 56.24 251.6 56.24H258.56C258.76 56.24 258.86 56.34 258.86 56.54V58.54C258.86 58.75 258.76 58.85 258.56 58.85H251.6ZM251.92 68.02C251.71 68.02 251.6 67.92 251.6 67.72V59.6C251.6 59.4 251.7 59.3 251.9 59.3H254.44C254.65 59.3 254.76 59.4 254.76 59.6V60.89H258C258.19 60.89 258.29 60.99 258.29 61.19V62.94C258.29 63.15 258.2 63.25 258 63.25H254.76V65.4H258.68C258.87 65.4 258.96 65.5 258.96 65.7V67.7C258.96 67.91 258.87 68.01 258.68 68.01H251.93L251.92 68.02Z" fill="#63C9EF"/>
<path d="M264.22 56.24C264.91 56.24 265.55 56.31 266.15 56.46C266.75 56.6 267.27 56.85 267.72 57.19C268.16 57.53 268.52 57.98 268.78 58.55C269.04 59.11 269.17 59.82 269.17 60.66V63.62C269.17 64.47 269.04 65.18 268.78 65.74C268.52 66.31 268.17 66.76 267.72 67.1C267.27 67.44 266.75 67.68 266.15 67.82C265.55 67.96 264.91 68.03 264.22 68.03H260.62C260.41 68.03 260.3 67.93 260.3 67.73V59.74C260.3 59.54 260.4 59.44 260.6 59.44H263.05C263.27 59.44 263.38 59.54 263.38 59.74V65.3H264.21C264.8 65.3 265.27 65.16 265.61 64.87C265.95 64.58 266.13 64.13 266.13 63.51V60.76C266.13 60.14 265.96 59.69 265.61 59.4C265.26 59.11 264.8 58.97 264.21 58.97H260.31C260.1 58.97 259.99 58.87 259.99 58.67V56.54C259.99 56.34 260.1 56.24 260.31 56.24H264.23H264.22Z" fill="#63C9EF"/>
<path d="M273.56 59.72V63.72C273.56 64.34 273.68 64.79 273.92 65.08C274.16 65.36 274.57 65.51 275.17 65.51C275.77 65.51 276.18 65.37 276.42 65.08C276.67 64.79 276.79 64.34 276.79 63.72V61.29C276.79 60.92 276.75 60.59 276.69 60.3C276.62 60.01 276.49 59.77 276.29 59.57C276.09 59.37 275.82 59.22 275.47 59.12C275.12 59.02 274.67 58.96 274.12 58.96H270.52C270.31 58.96 270.2 58.86 270.2 58.66V56.53C270.2 56.33 270.31 56.23 270.52 56.23H274.05C275.06 56.23 275.93 56.32 276.66 56.52C277.39 56.71 277.99 57 278.46 57.4C278.93 57.8 279.28 58.3 279.5 58.92C279.72 59.54 279.84 60.28 279.84 61.14V63.82C279.84 64.67 279.73 65.38 279.5 65.94C279.28 66.51 278.96 66.96 278.54 67.3C278.12 67.64 277.63 67.88 277.06 68.02C276.49 68.16 275.86 68.23 275.17 68.23C274.48 68.23 273.85 68.16 273.28 68.02C272.71 67.88 272.22 67.64 271.81 67.3C271.4 66.96 271.08 66.51 270.86 65.94C270.63 65.38 270.52 64.67 270.52 63.82V59.71C270.52 59.51 270.62 59.41 270.82 59.41H273.25C273.46 59.41 273.56 59.51 273.56 59.71V59.72Z" fill="#63C9EF"/>
<path d="M253.31 41.1C248.78 36.23 248.89 28.65 253.56 23.91C255.4 22.05 257.79 20.83 260.38 20.44L260.24 16.29C256.61 16.73 253.23 18.38 250.66 20.99C244.39 27.34 244.28 37.52 250.41 44.01L246.93 47.5L257.93 48.1L257.9 36.45L253.3 41.09L253.31 41.1ZM266.58 17.22L266.61 28.87L271.22 24.23C275.75 29.1 275.64 36.68 270.97 41.42C269.13 43.28 266.74 44.5 264.15 44.89L264.29 49.04C267.92 48.6 271.3 46.95 273.87 44.35C280.14 37.99 280.25 27.81 274.11 21.33L277.59 17.82L266.59 17.22H266.58Z" fill="#63C9EF"/>
</svg>
