<svg width="64" height="87" viewBox="0 0 64 87" fill="none" xmlns="http://www.w3.org/2000/svg">
<path d="M31.73 0.77002C14.83 0.77002 1.13 14.47 1.13 31.37C1.13 49.98 21.25 75.78 28.87 84.87C30.37 86.66 33.11 86.66 34.61 84.87C42.22 75.78 62.34 49.98 62.34 31.37C62.34 14.47 48.64 0.77002 31.74 0.77002H31.73ZM31.73 42.3C25.69 42.3 20.8 37.41 20.8 31.37C20.8 25.33 25.69 20.44 31.73 20.44C37.77 20.44 42.66 25.33 42.66 31.37C42.66 37.41 37.77 42.3 31.73 42.3Z" fill="current" stroke="black" stroke-width="1.54" stroke-miterlimit="10"/>
</svg>
