<svg width="297" height="83" viewBox="0 0 297 83" fill="none" xmlns="http://www.w3.org/2000/svg">
<path opacity="0.2" d="M297 73.23V5H239.77L239.79 5.01999L229.89 14.92L219.99 5.01999L220.01 5H5V83H220.01L229.89 73.12L239.77 83H287.01L296.89 73.12L297 73.23Z" fill="black"/>
<path d="M293 69.23V1H235.77L235.79 1.01999L225.89 10.92L215.99 1.01999L216.01 1H1V79H216.01L225.89 69.12L235.77 79H283.01L292.89 69.12L293 69.23Z" fill="white" stroke="black" stroke-linejoin="round"/>
<path d="M254.34 48.59C254.91 46.65 256.69 40.07 257.42 37.34C255.1 37.26 252.8 36.96 250.54 36.45C248.72 37.87 245.23 40.52 244.4 40.62C242.99 40.78 242.74 40.45 243.39 39.29C244.04 38.13 246.01 34.27 246.01 34.27C246.01 34.27 244.23 30.36 243.64 29.18C243.05 28 243.31 27.67 244.71 27.88C245.53 28 248.89 30.75 250.64 32.21C252.92 31.76 255.23 31.53 257.56 31.51C256.96 28.77 255.5 22.14 255.03 20.19C254.62 18.48 255.96 19.16 255.96 19.16C256.81 19.57 257.59 20.13 258.25 20.81C261 24.45 265.15 30.28 266.12 31.65C266.87 31.66 267.68 31.67 268.58 31.69C278.55 31.83 279.46 34.07 279.45 34.75C279.44 35.43 278.41 37.64 268.44 37.51L265.98 37.48C264.94 38.82 260.51 44.53 257.57 48.09C256.88 48.75 256.08 49.29 255.21 49.68C255.21 49.68 253.84 50.32 254.34 48.62V48.59Z" fill="#63C9EF"/>
<path d="M226 12V67.27" stroke="black" stroke-linecap="round" stroke-linejoin="round"/>
<path d="M237.52 40.45L205.98 71.98H1" stroke="#63C9EF" stroke-width="2" stroke-miterlimit="10" stroke-linecap="round"/>
<path d="M41.002 48.48C40.8287 48.5147 40.6987 48.48 40.612 48.376C40.5253 48.272 40.482 48.1333 40.482 47.96V44.58C40.482 44.4067 40.534 44.3027 40.638 44.268C40.742 44.216 40.8633 44.1467 41.002 44.06C41.7127 43.6787 42.3367 43.176 42.874 42.552C43.4287 41.928 43.888 41.1653 44.252 40.264C44.6333 39.3453 44.9193 38.2707 45.11 37.04C45.3007 35.8093 45.396 34.3967 45.396 32.802H40.742C40.3953 32.802 40.222 32.6287 40.222 32.282V29.344C40.222 28.9973 40.3953 28.824 40.742 28.824H49.218C49.582 28.824 49.764 29.006 49.764 29.37V32.23C49.764 33.9287 49.66 35.4887 49.452 36.91H51.142V29.006C51.142 28.642 51.3153 28.46 51.662 28.46H54.652C54.9987 28.46 55.172 28.642 55.172 29.006V48.74C55.172 49.0867 54.9987 49.26 54.652 49.26H51.662C51.3153 49.26 51.142 49.0867 51.142 48.74V41.408H48.334C46.8953 45.204 44.4513 47.5613 41.002 48.48ZM56.446 28.85C56.446 28.486 56.6193 28.304 56.966 28.304H59.982C60.3287 28.304 60.502 28.486 60.502 28.85V49C60.502 49.3467 60.3287 49.52 59.982 49.52H56.966C56.6193 49.52 56.446 49.3467 56.446 49V28.85ZM64.1891 41.304C64.1891 40.94 64.3625 40.758 64.7091 40.758H82.8051C83.1691 40.758 83.3511 40.9313 83.3511 41.278V48.87C83.3511 49.2167 83.1691 49.39 82.8051 49.39H64.7091C64.3625 49.39 64.1891 49.2167 64.1891 48.87V41.304ZM69.1031 43.93V46.244H78.4111V43.93H69.1031ZM67.5691 32.62C67.9331 32.62 68.1151 32.802 68.1151 33.166V33.842C68.1151 35.1073 68.7391 35.74 69.9871 35.74C71.2698 35.74 71.9111 35.1073 71.9111 33.842C71.9111 33.166 71.6511 32.6547 71.1311 32.308C70.6111 31.9613 69.7791 31.788 68.6351 31.788H63.2791C62.9151 31.788 62.7331 31.6233 62.7331 31.294V29.006C62.7331 28.642 62.9151 28.46 63.2791 28.46H68.5051C71.1225 28.46 73.1505 28.9107 74.5891 29.812C76.0278 30.696 76.7471 32.0307 76.7471 33.816C76.7471 34.6827 76.5825 35.4453 76.2531 36.104C75.9238 36.7627 75.4558 37.3173 74.8491 37.768C74.2598 38.2187 73.5491 38.5653 72.7171 38.808C71.9025 39.0333 70.9925 39.146 69.9871 39.146C68.9991 39.146 68.0891 39.0333 67.2571 38.808C66.4425 38.5653 65.7405 38.2187 65.1511 37.768C64.5618 37.3173 64.1025 36.7627 63.7731 36.104C63.4438 35.4453 63.2791 34.6827 63.2791 33.816V33.166C63.2791 32.802 63.4525 32.62 63.7991 32.62H67.5691ZM79.0611 39.432C78.6971 39.432 78.5151 39.2587 78.5151 38.912V28.85C78.5151 28.486 78.6971 28.304 79.0611 28.304H82.7791C83.1431 28.304 83.3251 28.486 83.3251 28.85V38.912C83.3251 39.2587 83.1431 39.432 82.7791 39.432H79.0611ZM104.912 43.046C104.912 44.19 104.756 45.1693 104.444 45.984C104.15 46.7813 103.725 47.4313 103.17 47.934C102.616 48.4367 101.948 48.8007 101.168 49.026C100.406 49.2687 99.5564 49.39 98.6204 49.39C97.6844 49.39 96.8351 49.2687 96.0724 49.026C95.3098 48.8007 94.6511 48.4367 94.0964 47.934C93.5591 47.4313 93.1344 46.7813 92.8224 45.984C92.5278 45.1693 92.3804 44.19 92.3804 43.046V41.2C92.3804 40.056 92.5278 39.0853 92.8224 38.288C93.1344 37.4733 93.5678 36.8147 94.1224 36.312C94.6771 35.8093 95.3358 35.4453 96.0984 35.22C96.8784 34.9773 97.7364 34.856 98.6724 34.856C99.6084 34.856 100.458 34.9773 101.22 35.22C101.983 35.4453 102.633 35.8093 103.17 36.312C103.725 36.8147 104.15 37.4733 104.444 38.288C104.756 39.0853 104.912 40.056 104.912 41.2V43.046ZM107.512 49.52C107.148 49.52 106.966 49.3467 106.966 49V28.85C106.966 28.486 107.148 28.304 107.512 28.304H111.23C111.594 28.304 111.776 28.486 111.776 28.85V36.026H113.128C113.475 36.026 113.648 36.208 113.648 36.572V40.03C113.648 40.3767 113.475 40.55 113.128 40.55H111.776V49C111.776 49.3467 111.594 49.52 111.23 49.52H107.512ZM91.8604 30.696C91.8604 30.3493 92.0424 30.176 92.4064 30.176H96.3064V27.94C96.3064 27.576 96.4884 27.394 96.8524 27.394H100.44C100.804 27.394 100.986 27.576 100.986 27.94V30.176H104.886C105.25 30.176 105.432 30.3493 105.432 30.696V33.504C105.432 33.8507 105.25 34.024 104.886 34.024H92.4064C92.0424 34.024 91.8604 33.8507 91.8604 33.504V30.696ZM100.336 41.2C100.336 40.42 100.215 39.8133 99.9724 39.38C99.7298 38.9293 99.2964 38.704 98.6724 38.704C98.0311 38.704 97.5804 38.9293 97.3204 39.38C97.0778 39.8133 96.9564 40.42 96.9564 41.2V43.046C96.9564 43.826 97.0778 44.4413 97.3204 44.892C97.5631 45.3253 97.9964 45.542 98.6204 45.542C99.2618 45.542 99.7038 45.3253 99.9464 44.892C100.206 44.4413 100.336 43.826 100.336 43.046V41.2ZM130.96 49.52C130.596 49.52 130.414 49.3467 130.414 49V40.758H128.438C128.108 40.758 127.944 40.5847 127.944 40.238V36.78C127.944 36.416 128.108 36.234 128.438 36.234H130.414V28.85C130.414 28.486 130.596 28.304 130.96 28.304H134.678C135.042 28.304 135.224 28.486 135.224 28.85V49C135.224 49.3467 135.042 49.52 134.678 49.52H130.96ZM115.074 37.56C115.074 37.2133 115.256 37.04 115.62 37.04H122.172V32.542H115.568C115.204 32.542 115.022 32.3687 115.022 32.022V29.344C115.022 28.9973 115.204 28.824 115.568 28.824H126.436C126.8 28.824 126.982 28.9973 126.982 29.344V40.108C126.982 40.4547 126.8 40.628 126.436 40.628H119.858V45.412H128.308C128.672 45.412 128.854 45.5853 128.854 45.932V48.61C128.854 48.9567 128.672 49.13 128.308 49.13H115.62C115.256 49.13 115.074 48.9567 115.074 48.61V37.56ZM153.419 49.52C153.055 49.52 152.873 49.3467 152.873 49V28.85C152.873 28.486 153.055 28.304 153.419 28.304H157.137C157.501 28.304 157.683 28.486 157.683 28.85V36.026H159.035C159.381 36.026 159.555 36.208 159.555 36.572V40.03C159.555 40.3767 159.381 40.55 159.035 40.55H157.683V49C157.683 49.3467 157.501 49.52 157.137 49.52H153.419ZM138.807 48.74C138.633 48.7747 138.503 48.74 138.417 48.636C138.33 48.532 138.287 48.3933 138.287 48.22V44.84C138.287 44.6667 138.33 44.554 138.417 44.502C138.521 44.4327 138.651 44.372 138.807 44.32C139.968 43.9387 140.991 43.3927 141.875 42.682C142.759 41.9713 143.495 41.122 144.085 40.134C144.674 39.146 145.116 38.0367 145.411 36.806C145.723 35.5753 145.879 34.2407 145.879 32.802H138.547C138.2 32.802 138.027 32.6287 138.027 32.282V29.344C138.027 28.9973 138.2 28.824 138.547 28.824H150.507C150.871 28.824 151.053 29.006 151.053 29.37V32.23C151.053 34.518 150.775 36.5893 150.221 38.444C149.683 40.2987 148.886 41.928 147.829 43.332C146.789 44.736 145.506 45.8973 143.981 46.816C142.473 47.7173 140.748 48.3587 138.807 48.74ZM176.866 49.52C176.502 49.52 176.32 49.3467 176.32 49V28.85C176.32 28.486 176.502 28.304 176.866 28.304H180.584C180.948 28.304 181.13 28.486 181.13 28.85V49C181.13 49.3467 180.948 49.52 180.584 49.52H176.866ZM161.76 48.74C161.569 48.7747 161.43 48.74 161.344 48.636C161.274 48.532 161.24 48.3933 161.24 48.22V44.84C161.24 44.6667 161.283 44.554 161.37 44.502C161.474 44.4327 161.604 44.372 161.76 44.32C164.082 43.5747 165.85 42.266 167.064 40.394C168.294 38.522 168.91 35.9913 168.91 32.802H161.5C161.153 32.802 160.98 32.6287 160.98 32.282V29.344C160.98 28.9973 161.153 28.824 161.5 28.824H173.59C173.954 28.824 174.136 29.006 174.136 29.37V32.23C174.136 34.518 173.85 36.5893 173.278 38.444C172.723 40.2987 171.917 41.928 170.86 43.332C169.802 44.736 168.502 45.8973 166.96 46.816C165.434 47.7173 163.701 48.3587 161.76 48.74Z" fill="black"/>
<path d="M247.262 60.304C247.262 59.696 247.075 59.2533 246.702 58.976C246.339 58.688 245.785 58.544 245.038 58.544H241.214C240.99 58.544 240.878 58.4373 240.878 58.224V56C240.878 55.7867 240.99 55.68 241.214 55.68H245.038C246.734 55.68 248.051 56.0587 248.99 56.816C249.929 57.5627 250.398 58.6347 250.398 60.032V60.352C250.398 61.0667 250.275 61.712 250.03 62.288C249.795 62.8533 249.449 63.3387 248.99 63.744C248.531 64.1387 247.966 64.4427 247.294 64.656C246.633 64.8693 245.881 64.976 245.038 64.976C244.953 64.976 244.862 64.976 244.766 64.976C244.681 64.976 244.59 64.9707 244.494 64.96V67.92C244.494 68.1333 244.382 68.24 244.158 68.24H241.534C241.321 68.24 241.214 68.1333 241.214 67.92V59.344C241.214 59.1307 241.321 59.024 241.534 59.024H244.158C244.382 59.024 244.494 59.1307 244.494 59.344V62.096C244.59 62.1067 244.681 62.112 244.766 62.112C244.862 62.112 244.953 62.112 245.038 62.112C245.785 62.112 246.339 61.968 246.702 61.68C247.075 61.392 247.262 60.9333 247.262 60.304ZM252.159 68.24C251.946 68.24 251.839 68.128 251.839 67.904V55.984C251.839 55.7813 251.946 55.68 252.159 55.68H254.863C255.087 55.68 255.199 55.7813 255.199 55.984V65.12H259.055C259.258 65.12 259.359 65.2267 259.359 65.44V67.904C259.359 68.128 259.258 68.24 259.055 68.24H252.159ZM263.456 67.984C263.392 68.1547 263.258 68.24 263.056 68.24H260.304C260.176 68.24 260.085 68.2027 260.032 68.128C259.989 68.064 259.994 67.9733 260.048 67.856L263.824 55.936C263.888 55.7653 264.016 55.68 264.208 55.68H266.464C266.709 55.68 266.8 55.808 266.736 56.064L263.456 67.984ZM268.096 68.24C267.893 68.24 267.77 68.1547 267.728 67.984L267.328 66.432H264.768C264.64 66.432 264.549 66.4 264.496 66.336C264.442 66.2613 264.437 66.1653 264.48 66.048L265.072 63.888C265.136 63.6853 265.258 63.584 265.44 63.584H266.592L265.952 61.104C265.909 60.976 265.914 60.8267 265.968 60.656L267.12 56.48C267.162 56.3307 267.232 56.256 267.328 56.256C267.424 56.256 267.498 56.3307 267.552 56.48L271.2 67.872C271.306 68.1173 271.226 68.24 270.96 68.24H268.096ZM279.976 55.68C280.243 55.68 280.323 55.808 280.216 56.064L277.016 63.28C276.963 63.3973 276.888 63.456 276.792 63.456C276.707 63.456 276.637 63.3973 276.584 63.28L275.336 60.032C275.272 59.8827 275.267 59.7333 275.32 59.584L276.696 55.936C276.739 55.7653 276.861 55.68 277.064 55.68H279.976ZM276.632 67.904C276.632 68.128 276.525 68.24 276.312 68.24H273.592C273.379 68.24 273.272 68.128 273.272 67.904V64.16L269.704 56.064C269.651 55.9467 269.645 55.856 269.688 55.792C269.741 55.7173 269.832 55.68 269.96 55.68H272.84C273.032 55.68 273.165 55.7653 273.24 55.936L276.52 64.432C276.595 64.6027 276.632 64.784 276.632 64.976V67.904Z" fill="#63C9EF"/>
</svg>
