<svg width="61" height="61" viewBox="0 0 61 61" fill="none" xmlns="http://www.w3.org/2000/svg">
<path opacity="0.2" d="M6.39001 0V46.53C6.39001 47.93 7.21001 49.19 8.49001 49.76L31.79 60.06C32.69 60.46 33.72 60.46 34.62 60.06L58.27 49.75C59.56 49.19 60.39 47.92 60.39 46.52V0H6.39001Z" fill="black"/>
<path d="M1 0V46.53C1 47.93 1.82 49.19 3.1 49.76L26.4 60.06C27.3 60.46 28.33 60.46 29.23 60.06L52.88 49.75C54.17 49.19 55 47.92 55 46.52V0H1Z" fill="#63C9EF"/>
<path d="M1 0V46.53C1 47.93 1.82 49.19 3.1 49.76L26.4 60.06C27.3 60.46 28.33 60.46 29.23 60.06L52.88 49.75C54.17 49.19 55 47.92 55 46.52V0" stroke="#606060" stroke-miterlimit="10"/>
<path d="M30.96 14.84C28.66 12.54 24.93 12.54 22.63 14.84L20.38 17.09L18.13 19.34C15.83 21.64 15.83 25.37 18.13 27.67C20.43 29.97 24.16 29.97 26.46 27.67L28.71 25.42L26.83 23.54L24.58 25.79C23.32 27.05 21.27 27.05 20.01 25.79C18.75 24.53 18.75 22.48 20.01 21.22L22.26 18.97L24.51 16.72C25.77 15.46 27.82 15.46 29.08 16.72L30.96 14.84Z" fill="white"/>
<path d="M25.04 20.69C27.34 22.99 31.07 22.99 33.37 20.69L35.62 18.44L37.87 16.19C40.17 13.89 40.17 10.16 37.87 7.86C35.57 5.56 31.84 5.56 29.54 7.86L27.29 10.11L29.17 11.99L31.42 9.74C32.68 8.48 34.73 8.48 35.99 9.74C37.25 11 37.25 13.05 35.99 14.31L33.74 16.56L31.49 18.81C30.23 20.07 28.18 20.07 26.92 18.81L25.04 20.69Z" fill="white"/>
<path d="M7.85006 39.98H10.1201C10.3301 39.98 10.4901 40 10.6301 40.03C10.7701 40.06 10.8601 40.12 10.9401 40.18C11.0201 40.24 11.0601 40.31 11.0901 40.4C11.1201 40.48 11.1301 40.57 11.1301 40.66C11.1301 40.77 11.1201 40.87 11.0901 40.96C11.0601 41.05 11.0101 41.12 10.9401 41.18C10.8701 41.24 10.7601 41.29 10.6301 41.33C10.5001 41.37 10.3301 41.38 10.1201 41.38H6.96006C6.75006 41.38 6.59006 41.36 6.48006 41.33C6.36006 41.29 6.27006 41.24 6.21006 41.18C6.15006 41.12 6.11006 41.04 6.09006 40.96C6.07006 40.88 6.07006 40.77 6.07006 40.66V38.98C6.07006 38.84 6.07006 38.71 6.09006 38.6C6.11006 38.49 6.14006 38.39 6.21006 38.31C6.27006 38.23 6.36006 38.17 6.48006 38.13C6.60006 38.09 6.76006 38.07 6.96006 38.07H9.03006V37.6H7.07006C6.86006 37.6 6.70006 37.58 6.56006 37.55C6.43006 37.51 6.32006 37.46 6.25006 37.4C6.18006 37.34 6.13006 37.26 6.10006 37.18C6.07006 37.1 6.06006 37.01 6.06006 36.92C6.06006 36.81 6.07006 36.71 6.10006 36.62C6.13006 36.53 6.18006 36.46 6.25006 36.39C6.32006 36.32 6.43006 36.27 6.56006 36.24C6.69006 36.2 6.86006 36.19 7.07006 36.19H9.92006C10.1301 36.19 10.2901 36.21 10.4001 36.25C10.5201 36.29 10.6101 36.35 10.6701 36.42C10.7301 36.49 10.7701 36.57 10.7901 36.66C10.8001 36.75 10.8101 36.85 10.8101 36.96V38.58C10.8101 38.72 10.8101 38.85 10.7901 38.96C10.7701 39.07 10.7401 39.17 10.6701 39.25C10.6101 39.33 10.5201 39.38 10.4001 39.43C10.2801 39.48 10.1201 39.49 9.92006 39.49H7.85006V40.01V39.98ZM8.22006 45.64C7.87006 45.64 7.58006 45.58 7.34006 45.48C7.10006 45.38 6.90006 45.24 6.76006 45.08C6.61006 44.91 6.51006 44.72 6.44006 44.5C6.37006 44.28 6.34006 44.04 6.34006 43.78C6.34006 43.52 6.37006 43.28 6.43006 43.06C6.49006 42.84 6.59006 42.64 6.73006 42.47C6.87006 42.3 7.07006 42.17 7.31006 42.07C7.56006 41.98 7.87006 41.92 8.24006 41.92H12.8401C13.2101 41.92 13.5201 41.97 13.7701 42.06C14.0201 42.15 14.2101 42.29 14.3501 42.46C14.4901 42.63 14.5901 42.83 14.6501 43.05C14.7101 43.27 14.7401 43.52 14.7401 43.78C14.7401 44.04 14.7101 44.28 14.6401 44.5C14.5701 44.72 14.4701 44.91 14.3101 45.08C14.1501 45.25 13.9701 45.38 13.7301 45.48C13.4901 45.58 13.2001 45.64 12.8601 45.64H8.22006ZM12.3701 44.18C12.5801 44.18 12.7401 44.16 12.8301 44.11C12.9201 44.06 12.9701 43.95 12.9701 43.78C12.9701 43.61 12.9201 43.49 12.8301 43.45C12.7401 43.41 12.5801 43.38 12.3701 43.38H8.72006C8.51006 43.38 8.35006 43.4 8.26006 43.45C8.17006 43.5 8.12006 43.61 8.12006 43.78C8.12006 43.95 8.17006 44.06 8.26006 44.11C8.36006 44.16 8.51006 44.18 8.72006 44.18H12.3701ZM12.8301 37.03C12.8301 36.66 12.9201 36.41 13.1001 36.28C13.2801 36.15 13.4901 36.08 13.7201 36.08C13.8401 36.08 13.9501 36.1 14.0501 36.12C14.1501 36.14 14.2501 36.2 14.3301 36.27C14.4101 36.34 14.4801 36.44 14.5301 36.57C14.5801 36.69 14.6101 36.85 14.6101 37.03V40.67C14.6101 40.86 14.5801 41.02 14.5301 41.14C14.4801 41.26 14.4101 41.36 14.3301 41.44C14.2501 41.51 14.1601 41.56 14.0501 41.59C13.9401 41.62 13.8301 41.63 13.7201 41.63C13.6101 41.63 13.4901 41.62 13.3801 41.59C13.2701 41.56 13.1801 41.51 13.0901 41.44C13.0101 41.37 12.9401 41.27 12.8901 41.14C12.8401 41.02 12.8201 40.86 12.8201 40.67V37.03H12.8301Z" fill="black"/>
<path d="M16.3 44.63C16.3 44.52 16.31 44.42 16.34 44.33C16.37 44.24 16.42 44.16 16.49 44.09C16.56 44.02 16.67 43.97 16.8 43.93C16.93 43.89 17.1 43.87 17.31 43.87H24.95C25.16 43.87 25.32 43.89 25.46 43.93C25.59 43.97 25.69 44.02 25.77 44.09C25.84 44.16 25.89 44.24 25.92 44.33C25.95 44.42 25.96 44.52 25.96 44.63C25.96 44.72 25.95 44.81 25.92 44.9C25.89 44.99 25.84 45.07 25.77 45.14C25.7 45.21 25.59 45.27 25.46 45.31C25.33 45.35 25.16 45.38 24.95 45.38H17.31C17.1 45.38 16.94 45.36 16.8 45.31C16.67 45.27 16.57 45.21 16.49 45.14C16.42 45.07 16.37 44.99 16.34 44.9C16.31 44.81 16.3 44.72 16.3 44.63ZM24.25 36.31C24.45 36.31 24.6 36.33 24.71 36.37C24.82 36.41 24.9 36.47 24.96 36.54C25.02 36.61 25.05 36.7 25.07 36.8C25.09 36.9 25.09 37.02 25.09 37.15V39.02C25.09 39.37 25.09 39.71 25.07 40.04C25.06 40.37 25.03 40.67 24.99 40.95C24.95 41.23 24.89 41.49 24.81 41.74C24.73 41.99 24.62 42.19 24.48 42.38C24.41 42.48 24.32 42.56 24.23 42.61C24.14 42.66 24.04 42.69 23.93 42.7C23.83 42.71 23.73 42.71 23.63 42.7C23.53 42.68 23.44 42.65 23.36 42.62C23.18 42.54 23.05 42.41 22.97 42.24C22.89 42.07 22.88 41.88 22.95 41.66C23.01 41.45 23.06 41.26 23.1 41.09C23.14 40.92 23.17 40.76 23.19 40.61H17.92C17.71 40.61 17.55 40.59 17.41 40.55C17.28 40.51 17.18 40.45 17.1 40.38C17.03 40.31 16.98 40.23 16.95 40.14C16.92 40.05 16.91 39.95 16.91 39.84C16.91 39.75 16.92 39.66 16.95 39.57C16.98 39.48 17.02 39.4 17.1 39.33C17.17 39.26 17.28 39.2 17.41 39.16C17.54 39.12 17.71 39.09 17.92 39.09H23.24V37.84H18C17.79 37.84 17.63 37.82 17.49 37.78C17.35 37.74 17.26 37.69 17.18 37.61C17.1 37.53 17.06 37.46 17.03 37.37C17 37.28 16.99 37.18 16.99 37.07C16.99 36.98 17 36.89 17.03 36.8C17.06 36.71 17.11 36.63 17.18 36.56C17.25 36.49 17.36 36.43 17.49 36.39C17.62 36.35 17.79 36.32 18 36.32H24.21L24.25 36.31Z" fill="black"/>
<path d="M30.87 41.35C30.69 41.35 30.54 41.33 30.43 41.3C30.32 41.27 30.24 41.22 30.18 41.16C30.12 41.1 30.08 41.03 30.06 40.95C30.04 40.87 30.03 40.78 30.03 40.68C30.03 40.6 30.03 40.52 30.06 40.44C30.08 40.36 30.12 40.29 30.18 40.23C30.24 40.17 30.32 40.12 30.43 40.08C30.54 40.04 30.69 40.02 30.87 40.02H33.03V39.06C33.03 38.88 33.05 38.73 33.1 38.61C33.15 38.49 33.21 38.41 33.3 38.35C33.38 38.29 33.48 38.24 33.59 38.22C33.7 38.2 33.81 38.19 33.92 38.19C34.03 38.19 34.15 38.2 34.26 38.22C34.37 38.24 34.46 38.28 34.54 38.35C34.62 38.41 34.69 38.5 34.74 38.61C34.79 38.72 34.82 38.87 34.82 39.06V40.02H38.88C39.06 40.02 39.21 40.04 39.32 40.08C39.43 40.12 39.51 40.17 39.57 40.23C39.63 40.29 39.67 40.36 39.69 40.44C39.71 40.52 39.72 40.6 39.72 40.68C39.72 40.78 39.72 40.87 39.69 40.95C39.67 41.03 39.63 41.1 39.57 41.16C39.51 41.22 39.43 41.27 39.32 41.3C39.21 41.33 39.06 41.35 38.88 41.35H30.88H30.87ZM32.42 45.64C32.07 45.64 31.78 45.58 31.54 45.48C31.3 45.38 31.1 45.25 30.96 45.09C30.81 44.93 30.71 44.74 30.64 44.53C30.57 44.32 30.54 44.09 30.54 43.84C30.54 43.59 30.57 43.36 30.63 43.14C30.69 42.92 30.79 42.73 30.93 42.57C31.07 42.41 31.27 42.28 31.51 42.19C31.76 42.09 32.07 42.04 32.44 42.04H37.15C37.52 42.04 37.83 42.09 38.08 42.18C38.33 42.28 38.52 42.41 38.66 42.57C38.8 42.74 38.9 42.93 38.96 43.14C39.02 43.36 39.05 43.59 39.05 43.84C39.05 44.09 39.02 44.32 38.95 44.53C38.88 44.74 38.78 44.93 38.63 45.09C38.48 45.25 38.29 45.38 38.05 45.48C37.81 45.58 37.52 45.63 37.18 45.64H32.43H32.42ZM37.95 36.18C38.15 36.18 38.3 36.2 38.41 36.24C38.52 36.28 38.6 36.34 38.66 36.41C38.72 36.48 38.76 36.57 38.77 36.67C38.78 36.77 38.79 36.89 38.79 37.02V37.57C38.79 37.84 38.77 38.12 38.73 38.4C38.69 38.68 38.63 38.93 38.54 39.15C38.5 39.27 38.43 39.36 38.34 39.42C38.25 39.48 38.16 39.52 38.05 39.55C37.95 39.57 37.84 39.58 37.74 39.58C37.64 39.58 37.54 39.57 37.45 39.55C37.26 39.51 37.1 39.44 36.98 39.33C36.86 39.22 36.82 39.05 36.85 38.82C36.89 38.62 36.91 38.46 36.93 38.35C36.95 38.24 36.95 38.09 36.95 37.91V37.61H31.76C31.55 37.61 31.39 37.59 31.25 37.56C31.11 37.53 31.02 37.48 30.94 37.42C30.86 37.36 30.82 37.28 30.79 37.19C30.76 37.1 30.75 37 30.75 36.89C30.75 36.8 30.76 36.72 30.79 36.63C30.82 36.55 30.87 36.47 30.94 36.4C31.01 36.33 31.12 36.28 31.25 36.25C31.38 36.21 31.55 36.19 31.76 36.19H37.93L37.95 36.18ZM36.67 44.31C36.88 44.29 37.04 44.26 37.13 44.2C37.22 44.15 37.27 44.02 37.27 43.83C37.27 43.64 37.22 43.52 37.13 43.46C37.03 43.41 36.88 43.37 36.67 43.35H32.91C32.7 43.37 32.54 43.4 32.45 43.46C32.36 43.51 32.31 43.64 32.31 43.83C32.31 44.02 32.36 44.14 32.45 44.2C32.55 44.25 32.7 44.29 32.91 44.31H36.67Z" fill="black"/>
<path d="M40.5001 42.39C40.5001 42.28 40.5101 42.18 40.5401 42.09C40.5701 42 40.6201 41.92 40.6901 41.85C40.7601 41.78 40.8701 41.73 41.0001 41.69C41.1301 41.65 41.3001 41.63 41.5101 41.63H49.1501C49.3601 41.63 49.5201 41.65 49.6601 41.69C49.7901 41.73 49.8901 41.78 49.9701 41.85C50.0401 41.92 50.0901 42 50.1201 42.09C50.1501 42.18 50.1601 42.28 50.1601 42.39C50.1601 42.48 50.1501 42.57 50.1201 42.66C50.0901 42.75 50.0401 42.83 49.9701 42.9C49.9001 42.97 49.7901 43.03 49.6601 43.07C49.5301 43.11 49.3601 43.14 49.1501 43.14H48.0601V44.55C48.0601 44.74 48.0301 44.9 47.9801 45.02C47.9301 45.14 47.8601 45.24 47.7801 45.32C47.7001 45.39 47.6101 45.44 47.5001 45.47C47.3901 45.5 47.2801 45.51 47.1601 45.51C47.0401 45.51 46.9301 45.5 46.8301 45.47C46.7301 45.44 46.6301 45.39 46.5401 45.32C46.4601 45.25 46.3901 45.15 46.3401 45.02C46.2901 44.89 46.2701 44.74 46.2701 44.55V43.14H44.3801V44.55C44.3801 44.74 44.3501 44.9 44.3001 45.02C44.2501 45.14 44.1801 45.24 44.1001 45.32C44.0201 45.39 43.9301 45.44 43.8201 45.47C43.7101 45.5 43.6001 45.51 43.4801 45.51C43.3601 45.51 43.2501 45.5 43.1501 45.47C43.0501 45.44 42.9501 45.39 42.8601 45.32C42.7801 45.25 42.7101 45.15 42.6601 45.02C42.6101 44.89 42.5901 44.74 42.5901 44.55V43.14H41.4901C41.2801 43.14 41.1201 43.12 40.9801 43.07C40.8501 43.03 40.7501 42.97 40.6701 42.9C40.5901 42.83 40.5501 42.75 40.5201 42.66C40.4901 42.57 40.4801 42.48 40.4801 42.39H40.5001ZM41.1501 38.22C41.1501 37.93 41.2001 37.66 41.3101 37.41C41.4201 37.16 41.5701 36.95 41.7801 36.77C41.9901 36.59 42.2301 36.45 42.5201 36.35C42.8101 36.25 43.1301 36.2 43.5001 36.2H47.1501C47.5101 36.2 47.8301 36.25 48.1201 36.35C48.4101 36.45 48.6601 36.59 48.8601 36.77C49.0601 36.95 49.2201 37.16 49.3301 37.41C49.4401 37.66 49.4901 37.93 49.4901 38.22V38.77C49.4901 39.36 49.3001 39.83 48.9301 40.16C48.5601 40.49 47.9801 40.66 47.2001 40.67H43.4501C42.6701 40.67 42.1001 40.49 41.7201 40.16C41.3401 39.83 41.1501 39.36 41.1501 38.77V38.22ZM42.9301 38.49C42.9301 38.76 43.0001 38.94 43.1401 39.02C43.2801 39.1 43.5101 39.15 43.8201 39.16H46.8101C47.1301 39.15 47.3501 39.1 47.4901 39.02C47.6301 38.94 47.7001 38.76 47.7001 38.49V38.36C47.7001 38.08 47.6301 37.9 47.4901 37.82C47.3501 37.74 47.1101 37.69 46.7801 37.69H43.8501C43.5101 37.69 43.2701 37.73 43.1401 37.82C43.0001 37.9 42.9301 38.09 42.9301 38.36V38.49Z" fill="black"/>
</svg>
