<svg width="99" height="109" viewBox="0 0 99 109" fill="none" xmlns="http://www.w3.org/2000/svg">
    <path
        d="M57.88 1.24496C57.05 3.08496 54.38 9.36495 53.28 11.955C55.56 12.355 57.8 12.965 59.97 13.785C61.97 12.635 65.79 10.485 66.62 10.505C68.04 10.535 68.24 10.9049 67.44 11.9649C66.64 13.0249 64.15 16.5749 64.15 16.5749C64.15 16.5749 65.37 20.695 65.8 21.945C66.23 23.195 65.92 23.485 64.56 23.085C63.77 22.855 60.82 19.665 59.29 17.975C56.97 18.105 54.65 18.015 52.34 17.705C52.56 20.505 53.08 27.2749 53.28 29.2649C53.45 31.0149 52.22 30.165 52.22 30.165C51.43 29.645 50.74 28.9849 50.18 28.2149C47.96 24.2249 44.66 17.885 43.88 16.395C43.14 16.285 42.34 16.1549 41.45 16.0149C31.59 14.5049 31 12.155 31.11 11.485C31.22 10.815 32.54 8.76496 42.4 10.275L44.83 10.645C46.05 9.45495 51.23 4.42495 54.62 1.29495C55.39 0.734947 56.26 0.314957 57.18 0.0549571C57.18 0.0549571 58.63 -0.385045 57.9 1.22496L57.88 1.24496Z"
        fill="white" />
    <path
        d="M49.5 107.085C75.7335 107.085 97 85.8185 97 59.5849C97 33.3514 75.7335 12.085 49.5 12.085C23.2665 12.085 2 33.3514 2 59.5849C2 85.8185 23.2665 107.085 49.5 107.085Z"
        stroke="white" stroke-width="3" stroke-linecap="round" stroke-linejoin="round" />
    <path
        d="M49.5 35.405C36.15 35.405 25.32 46.225 25.32 59.585C25.32 72.935 36.14 83.765 49.5 83.765C62.86 83.765 73.68 72.945 73.68 59.585C73.68 46.235 62.86 35.405 49.5 35.405ZM51.87 72.515V76.815H48.04V72.715C44.98 72.695 42.06 71.465 39.92 69.285L43.21 65.955C44.91 67.525 47.18 68.325 49.49 68.175C52.48 68.175 54.09 67.025 54.09 64.915C54.14 64.095 53.85 63.295 53.29 62.695C52.65 62.145 51.84 61.815 50.99 61.775L47.85 61.335C45.98 61.165 44.21 60.405 42.81 59.155C41.51 57.755 40.84 55.885 40.95 53.975C40.95 49.845 43.6 46.805 48.05 46.125V42.375H51.88V46.075C54.34 46.255 56.66 47.305 58.42 49.045L55.21 52.265C53.75 50.955 51.83 50.305 49.88 50.455C47.18 50.455 45.86 51.975 45.86 53.785C45.84 54.495 46.12 55.175 46.63 55.675C47.31 56.255 48.15 56.615 49.04 56.715L52.11 57.155C53.94 57.285 55.68 57.995 57.08 59.185C58.5 60.685 59.23 62.715 59.09 64.775C59.09 69.085 56.09 71.785 51.9 72.535L51.87 72.515Z"
        fill="white" />
</svg>