<svg width="297" height="83" viewBox="0 0 297 83" fill="none" xmlns="http://www.w3.org/2000/svg">
    <path opacity="0.2"
        d="M297 73.23V5H239.77L239.79 5.03L229.9 14.92L220 5.03L220.02 5H5V83H220.02L229.9 73.13L239.77 83H287.02L296.9 73.13L297 73.23Z"
        fill="black" />
    <path
        d="M293 69.23V1H235.77L235.79 1.03L225.9 10.92L216 1.03L216.02 1H1V79H216.02L225.9 69.13L235.77 79H283.02L292.9 69.13L293 69.23Z"
        fill="white" />
    <path d="M226 12V67.28" stroke="black" stroke-linecap="round" stroke-linejoin="round" />
    <path d="M237.52 40.45L205.99 71.99H1" stroke="#5A75E5" stroke-width="2" stroke-miterlimit="10"
        stroke-linecap="round" />
    <path d="M235.77 1L235.79 1.03L228.24 8.57999H293V1H235.77Z" fill="#5A75E5" />
    <path d="M216 1.03L216.02 1H1V8.57999H223.55L216 1.03Z" fill="#5A75E5" />
    <path
        d="M293 69.23V1H235.77L235.79 1.03L225.9 10.92L216 1.03L216.02 1H1V79H216.02L225.9 69.13L235.77 79H283.02L292.9 69.13L293 69.23Z"
        stroke="black" stroke-linejoin="round" />
    <path
        d="M254.291 48.5635C254.861 46.6235 256.641 40.0435 257.371 37.3135C255.051 37.2335 252.751 36.9334 250.491 36.4234C248.671 37.8434 245.181 40.4934 244.351 40.5934C242.941 40.7534 242.691 40.4234 243.341 39.2634C243.991 38.1034 245.961 34.2434 245.961 34.2434C245.961 34.2434 244.181 30.3334 243.591 29.1534C243.001 27.9734 243.261 27.6434 244.661 27.8534C245.481 27.9734 248.841 30.7234 250.591 32.1834C252.871 31.7334 255.181 31.5034 257.511 31.4834C256.911 28.7434 255.451 22.1134 254.981 20.1634C254.571 18.4534 255.911 19.1335 255.911 19.1335C256.761 19.5435 257.541 20.1034 258.201 20.7834C260.951 24.4234 265.101 30.2535 266.071 31.6235C266.821 31.6335 267.631 31.6434 268.531 31.6634C278.501 31.8034 279.411 34.0434 279.401 34.7234C279.391 35.4034 278.361 37.6134 268.391 37.4834L265.931 37.4534C264.891 38.7934 260.461 44.5035 257.521 48.0635C256.831 48.7235 256.031 49.2634 255.161 49.6534C255.161 49.6534 253.791 50.2934 254.291 48.5934V48.5635Z"
        fill="#5A75E5" />
</svg>